<?xml version="1.0" encoding="utf-8"?>
<svg xmlns="http://www.w3.org/2000/svg" viewBox="335.721 180.76 52 52" width="52px" height="52px">
  <path d="M 361.721 180.76 C 347.362 180.76 335.721 192.401 335.721 206.76 C 335.721 206.997 335.732 207.231 335.738 207.467 L 348.377 211.901 C 349.84 209.995 352.133 208.76 354.721 208.76 C 354.903 208.76 355.081 208.776 355.26 208.788 L 358.781 202.45 C 358.741 202.059 358.721 201.662 358.721 201.26 C 358.721 194.909 363.87 189.76 370.221 189.76 C 376.572 189.76 381.721 194.909 381.721 201.26 C 381.721 207.611 376.572 212.76 370.221 212.76 C 369.592 212.76 368.98 212.697 368.379 212.6 L 362.691 216.155 C 362.705 216.356 362.721 216.555 362.721 216.76 C 362.721 221.178 359.139 224.76 354.721 224.76 C 350.303 224.76 346.721 221.178 346.721 216.76 C 346.721 216.502 346.736 216.249 346.76 215.997 L 336.047 210.874 C 338.019 223.278 348.762 232.76 361.721 232.76 C 376.08 232.76 387.721 221.119 387.721 206.76 C 387.721 192.401 376.08 180.76 361.721 180.76 Z M 370.221 193.76 C 366.079 193.76 362.721 197.118 362.721 201.26 C 362.721 205.402 366.079 208.76 370.221 208.76 C 374.363 208.76 377.721 205.402 377.721 201.26 C 377.721 197.118 374.363 193.76 370.221 193.76 Z M 370.221 197.76 C 372.154 197.76 373.721 199.327 373.721 201.26 C 373.721 203.193 372.154 204.76 370.221 204.76 C 368.288 204.76 366.721 203.193 366.721 201.26 C 366.721 199.327 368.288 197.76 370.221 197.76 Z M 354.721 211.76 C 353.475 211.76 352.351 212.233 351.475 212.987 L 354.91 214.192 C 355.987 214.53 356.721 215.528 356.721 216.657 C 356.721 218.559 354.736 219.812 353.02 218.991 L 349.791 217.446 C 350.127 219.88 352.194 221.76 354.721 221.76 C 357.482 221.76 359.721 219.521 359.721 216.76 C 359.721 213.999 357.482 211.76 354.721 211.76 Z" style="stroke-width: 1; fill: rgb(35, 72, 136);"/>
</svg>